<svg width="28" height="23" viewBox="0 0 28 23" fill="none" xmlns="http://www.w3.org/2000/svg">
<path d="M15.4 7.94552H12.6V5.67537C12.6 5.37433 12.4525 5.08562 12.1899 4.87275C11.9274 4.65988 11.5713 4.5403 11.2 4.5403C10.8287 4.5403 10.4726 4.65988 10.2101 4.87275C9.9475 5.08562 9.8 5.37433 9.8 5.67537V7.94552H7C6.6287 7.94552 6.2726 8.06511 6.01005 8.27797C5.7475 8.49084 5.6 8.77955 5.6 9.08059C5.6 9.38163 5.7475 9.67034 6.01005 9.88321C6.2726 10.0961 6.6287 10.2157 7 10.2157H9.8V12.4858C9.8 12.7869 9.9475 13.0756 10.2101 13.2884C10.4726 13.5013 10.8287 13.6209 11.2 13.6209C11.5713 13.6209 11.9274 13.5013 12.1899 13.2884C12.4525 13.0756 12.6 12.7869 12.6 12.4858V10.2157H15.4C15.7713 10.2157 16.1274 10.0961 16.3899 9.88321C16.6525 9.67034 16.8 9.38163 16.8 9.08059C16.8 8.77955 16.6525 8.49084 16.3899 8.27797C16.1274 8.06511 15.7713 7.94552 15.4 7.94552ZM22.4 14.756V3.40522C22.4 2.5021 21.9575 1.63597 21.1698 0.997366C20.3822 0.358764 19.3139 0 18.2 0H4.2C3.08609 0 2.0178 0.358764 1.23015 0.997366C0.442499 1.63597 0 2.5021 0 3.40522V14.756C0 15.6591 0.442499 16.5252 1.23015 17.1638C2.0178 17.8024 3.08609 18.1612 4.2 18.1612H18.2C19.3139 18.1612 20.3822 17.8024 21.1698 17.1638C21.9575 16.5252 22.4 15.6591 22.4 14.756ZM2.8 14.756V3.40522C2.8 3.10418 2.9475 2.81547 3.21005 2.6026C3.4726 2.38974 3.8287 2.27015 4.2 2.27015H18.2C18.5713 2.27015 18.9274 2.38974 19.1899 2.6026C19.4525 2.81547 19.6 3.10418 19.6 3.40522V14.756C19.6 15.057 19.4525 15.3457 19.1899 15.5586C18.9274 15.7714 18.5713 15.891 18.2 15.891H4.2C3.8287 15.891 3.4726 15.7714 3.21005 15.5586C2.9475 15.3457 2.8 15.057 2.8 14.756ZM26.6 4.5403C26.2287 4.5403 25.8726 4.65988 25.61 4.87275C25.3475 5.08562 25.2 5.37433 25.2 5.67537V17.0261C25.2 17.9292 24.7575 18.7954 23.9698 19.434C23.1822 20.0726 22.1139 20.4313 21 20.4313H7C6.6287 20.4313 6.2726 20.5509 6.01005 20.7638C5.7475 20.9767 5.6 21.2654 5.6 21.5664C5.6 21.8674 5.7475 22.1562 6.01005 22.369C6.2726 22.5819 6.6287 22.7015 7 22.7015H21C22.8565 22.7015 24.637 22.1035 25.9497 21.0392C27.2625 19.9749 28 18.5313 28 17.0261V5.67537C28 5.37433 27.8525 5.08562 27.59 4.87275C27.3274 4.65988 26.9713 4.5403 26.6 4.5403Z" fill="white"/>
</svg>
