<svg width="46" height="46" viewBox="0 0 46 46" fill="none" xmlns="http://www.w3.org/2000/svg">
<path d="M29.75 34.25C29.305 34.25 28.87 34.382 28.5 34.6292C28.13 34.8764 27.8416 35.2278 27.6713 35.639C27.501 36.0501 27.4564 36.5025 27.5432 36.939C27.6301 37.3754 27.8443 37.7763 28.159 38.091C28.4737 38.4057 28.8746 38.62 29.3111 38.7068C29.7475 38.7936 30.1999 38.749 30.611 38.5787C31.0222 38.4084 31.3736 38.12 31.6208 37.75C31.868 37.38 32 36.945 32 36.5C32 35.9033 31.763 35.331 31.341 34.909C30.919 34.4871 30.3467 34.25 29.75 34.25ZM16.25 34.25H9.5C8.90326 34.25 8.33097 34.4871 7.90901 34.909C7.48705 35.331 7.25 35.9033 7.25 36.5C7.25 37.0967 7.48705 37.669 7.90901 38.091C8.33097 38.513 8.90326 38.75 9.5 38.75H16.25C16.8467 38.75 17.419 38.513 17.841 38.091C18.2629 37.669 18.5 37.0967 18.5 36.5C18.5 35.9033 18.2629 35.331 17.841 34.909C17.419 34.4871 16.8467 34.25 16.25 34.25ZM36.5 34.25C36.055 34.25 35.62 34.382 35.25 34.6292C34.88 34.8764 34.5916 35.2278 34.4213 35.639C34.251 36.0501 34.2064 36.5025 34.2932 36.939C34.3801 37.3754 34.5943 37.7763 34.909 38.091C35.2237 38.4057 35.6246 38.62 36.061 38.7068C36.4975 38.7936 36.9499 38.749 37.361 38.5787C37.7722 38.4084 38.1236 38.12 38.3708 37.75C38.618 37.38 38.75 36.945 38.75 36.5C38.75 35.9033 38.513 35.331 38.091 34.909C37.669 34.4871 37.0967 34.25 36.5 34.25ZM29.75 20.75C29.305 20.75 28.87 20.882 28.5 21.1292C28.13 21.3764 27.8416 21.7278 27.6713 22.139C27.501 22.5501 27.4564 23.0025 27.5432 23.439C27.6301 23.8754 27.8443 24.2763 28.159 24.591C28.4737 24.9057 28.8746 25.12 29.3111 25.2068C29.7475 25.2936 30.1999 25.249 30.611 25.0787C31.0222 24.9084 31.3736 24.62 31.6208 24.25C31.868 23.88 32 23.445 32 23C32 22.4033 31.763 21.831 31.341 21.409C30.919 20.9871 30.3467 20.75 29.75 20.75ZM16.25 20.75H9.5C8.90326 20.75 8.33097 20.9871 7.90901 21.409C7.48705 21.831 7.25 22.4033 7.25 23C7.25 23.5967 7.48705 24.169 7.90901 24.591C8.33097 25.0129 8.90326 25.25 9.5 25.25H16.25C16.8467 25.25 17.419 25.0129 17.841 24.591C18.2629 24.169 18.5 23.5967 18.5 23C18.5 22.4033 18.2629 21.831 17.841 21.409C17.419 20.9871 16.8467 20.75 16.25 20.75ZM36.5 7.25C36.055 7.25 35.62 7.38196 35.25 7.62919C34.88 7.87643 34.5916 8.22783 34.4213 8.63896C34.251 9.0501 34.2064 9.5025 34.2932 9.93895C34.3801 10.3754 34.5943 10.7763 34.909 11.091C35.2237 11.4057 35.6246 11.62 36.061 11.7068C36.4975 11.7936 36.9499 11.749 37.361 11.5787C37.7722 11.4084 38.1236 11.12 38.3708 10.75C38.618 10.38 38.75 9.94501 38.75 9.5C38.75 8.90326 38.513 8.33097 38.091 7.90901C37.669 7.48705 37.0967 7.25 36.5 7.25ZM36.5 20.75C36.055 20.75 35.62 20.882 35.25 21.1292C34.88 21.3764 34.5916 21.7278 34.4213 22.139C34.251 22.5501 34.2064 23.0025 34.2932 23.439C34.3801 23.8754 34.5943 24.2763 34.909 24.591C35.2237 24.9057 35.6246 25.12 36.061 25.2068C36.4975 25.2936 36.9499 25.249 37.361 25.0787C37.7722 24.9084 38.1236 24.62 38.3708 24.25C38.618 23.88 38.75 23.445 38.75 23C38.75 22.4033 38.513 21.831 38.091 21.409C37.669 20.9871 37.0967 20.75 36.5 20.75ZM45.5 7.25C45.5 5.45979 44.7888 3.7429 43.523 2.47703C42.2571 1.21116 40.5402 0.5 38.75 0.5H7.25C5.45979 0.5 3.7429 1.21116 2.47703 2.47703C1.21116 3.7429 0.5 5.45979 0.5 7.25V11.75C0.509924 13.4151 1.13497 15.0178 2.255 16.25C1.13497 17.4822 0.509924 19.0849 0.5 20.75V25.25C0.509924 26.9151 1.13497 28.5178 2.255 29.75C1.13497 30.9822 0.509924 32.5849 0.5 34.25V38.75C0.5 40.5402 1.21116 42.2571 2.47703 43.523C3.7429 44.7888 5.45979 45.5 7.25 45.5H38.75C40.5402 45.5 42.2571 44.7888 43.523 43.523C44.7888 42.2571 45.5 40.5402 45.5 38.75V34.25C45.4901 32.5849 44.865 30.9822 43.745 29.75C44.865 28.5178 45.4901 26.9151 45.5 25.25V20.75C45.4901 19.0849 44.865 17.4822 43.745 16.25C44.865 15.0178 45.4901 13.4151 45.5 11.75V7.25ZM41 38.75C41 39.3467 40.763 39.919 40.341 40.341C39.919 40.763 39.3467 41 38.75 41H7.25C6.65326 41 6.08097 40.763 5.65901 40.341C5.23705 39.919 5 39.3467 5 38.75V34.25C5 33.6533 5.23705 33.081 5.65901 32.659C6.08097 32.2371 6.65326 32 7.25 32H38.75C39.3467 32 39.919 32.2371 40.341 32.659C40.763 33.081 41 33.6533 41 34.25V38.75ZM41 25.25C41 25.8467 40.763 26.419 40.341 26.841C39.919 27.2629 39.3467 27.5 38.75 27.5H7.25C6.65326 27.5 6.08097 27.2629 5.65901 26.841C5.23705 26.419 5 25.8467 5 25.25V20.75C5 20.1533 5.23705 19.581 5.65901 19.159C6.08097 18.7371 6.65326 18.5 7.25 18.5H38.75C39.3467 18.5 39.919 18.7371 40.341 19.159C40.763 19.581 41 20.1533 41 20.75V25.25ZM41 11.75C41 12.3467 40.763 12.919 40.341 13.341C39.919 13.7629 39.3467 14 38.75 14H7.25C6.65326 14 6.08097 13.7629 5.65901 13.341C5.23705 12.919 5 12.3467 5 11.75V7.25C5 6.65326 5.23705 6.08097 5.65901 5.65901C6.08097 5.23705 6.65326 5 7.25 5H38.75C39.3467 5 39.919 5.23705 40.341 5.65901C40.763 6.08097 41 6.65326 41 7.25V11.75ZM29.75 7.25C29.305 7.25 28.87 7.38196 28.5 7.62919C28.13 7.87643 27.8416 8.22783 27.6713 8.63896C27.501 9.0501 27.4564 9.5025 27.5432 9.93895C27.6301 10.3754 27.8443 10.7763 28.159 11.091C28.4737 11.4057 28.8746 11.62 29.3111 11.7068C29.7475 11.7936 30.1999 11.749 30.611 11.5787C31.0222 11.4084 31.3736 11.12 31.6208 10.75C31.868 10.38 32 9.94501 32 9.5C32 8.90326 31.763 8.33097 31.341 7.90901C30.919 7.48705 30.3467 7.25 29.75 7.25ZM16.25 7.25H9.5C8.90326 7.25 8.33097 7.48705 7.90901 7.90901C7.48705 8.33097 7.25 8.90326 7.25 9.5C7.25 10.0967 7.48705 10.669 7.90901 11.091C8.33097 11.5129 8.90326 11.75 9.5 11.75H16.25C16.8467 11.75 17.419 11.5129 17.841 11.091C18.2629 10.669 18.5 10.0967 18.5 9.5C18.5 8.90326 18.2629 8.33097 17.841 7.90901C17.419 7.48705 16.8467 7.25 16.25 7.25Z" fill="#888888"/>
</svg>
