<svg width="28" height="28" viewBox="0 0 28 28" fill="none" xmlns="http://www.w3.org/2000/svg">
<path d="M15.4 9.8H12.6V7C12.6 6.6287 12.4525 6.2726 12.1899 6.01005C11.9274 5.7475 11.5713 5.6 11.2 5.6C10.8287 5.6 10.4726 5.7475 10.2101 6.01005C9.9475 6.2726 9.8 6.6287 9.8 7V9.8H7C6.6287 9.8 6.2726 9.9475 6.01005 10.2101C5.7475 10.4726 5.6 10.8287 5.6 11.2C5.6 11.5713 5.7475 11.9274 6.01005 12.1899C6.2726 12.4525 6.6287 12.6 7 12.6H9.8V15.4C9.8 15.7713 9.9475 16.1274 10.2101 16.3899C10.4726 16.6525 10.8287 16.8 11.2 16.8C11.5713 16.8 11.9274 16.6525 12.1899 16.3899C12.4525 16.1274 12.6 15.7713 12.6 15.4V12.6H15.4C15.7713 12.6 16.1274 12.4525 16.3899 12.1899C16.6525 11.9274 16.8 11.5713 16.8 11.2C16.8 10.8287 16.6525 10.4726 16.3899 10.2101C16.1274 9.9475 15.7713 9.8 15.4 9.8ZM22.4 18.2V4.2C22.4 3.08609 21.9575 2.0178 21.1698 1.23015C20.3822 0.442499 19.3139 0 18.2 0H4.2C3.08609 0 2.0178 0.442499 1.23015 1.23015C0.442499 2.0178 0 3.08609 0 4.2V18.2C0 19.3139 0.442499 20.3822 1.23015 21.1698C2.0178 21.9575 3.08609 22.4 4.2 22.4H18.2C19.3139 22.4 20.3822 21.9575 21.1698 21.1698C21.9575 20.3822 22.4 19.3139 22.4 18.2ZM2.8 18.2V4.2C2.8 3.8287 2.9475 3.4726 3.21005 3.21005C3.4726 2.9475 3.8287 2.8 4.2 2.8H18.2C18.5713 2.8 18.9274 2.9475 19.1899 3.21005C19.4525 3.4726 19.6 3.8287 19.6 4.2V18.2C19.6 18.5713 19.4525 18.9274 19.1899 19.1899C18.9274 19.4525 18.5713 19.6 18.2 19.6H4.2C3.8287 19.6 3.4726 19.4525 3.21005 19.1899C2.9475 18.9274 2.8 18.5713 2.8 18.2ZM26.6 5.6C26.2287 5.6 25.8726 5.7475 25.61 6.01005C25.3475 6.2726 25.2 6.6287 25.2 7V21C25.2 22.1139 24.7575 23.1822 23.9698 23.9698C23.1822 24.7575 22.1139 25.2 21 25.2H7C6.6287 25.2 6.2726 25.3475 6.01005 25.61C5.7475 25.8726 5.6 26.2287 5.6 26.6C5.6 26.9713 5.7475 27.3274 6.01005 27.59C6.2726 27.8525 6.6287 28 7 28H21C22.8565 28 24.637 27.2625 25.9497 25.9497C27.2625 24.637 28 22.8565 28 21V7C28 6.6287 27.8525 6.2726 27.59 6.01005C27.3274 5.7475 26.9713 5.6 26.6 5.6Z" fill="white"/>
</svg>
